<svg xmlns="http://www.w3.org/2000/svg" viewBox="0 0 960 420" font-family="'Noto Sans',Arial,sans-serif">
  <rect width="960" height="420" fill="#ffffff"/>
  <rect x="8" y="8" width="944" height="404" fill="none" stroke="#1351b4" stroke-width="2" rx="6"/>
  <rect x="8" y="8" width="36" height="404" fill="#1351b4" rx="6"/>
  <text x="26" y="214" fill="#fff" font-size="15" font-weight="700" text-anchor="middle" transform="rotate(-90 26 214)">P-04-01</text>
  <text x="60" y="42" fill="#0c326f" font-size="20" font-weight="700">Operação e Manutenção de Perímetros Irrigados</text>
  <text x="60" y="64" fill="#555" font-size="12">Diagrama BPMN ilustrativo — substitua este arquivo pela exportação do Bizagi Modeler (mesmo nome).</text>
  <line x1="44" y1="140" x2="952" y2="140" stroke="#ccc" stroke-dasharray="6 4"/>
  <line x1="44" y1="280" x2="952" y2="280" stroke="#ccc" stroke-dasharray="6 4"/>
  <text x="60" y="128" fill="#888" font-size="11" font-weight="700">RAIA — ÁREA DEMANDANTE</text>
  <text x="60" y="268" fill="#888" font-size="11" font-weight="700">RAIA — UNIDADE EXECUTORA</text>
  <circle cx="110" cy="205" r="16" fill="#fff" stroke="#168821" stroke-width="3"/>
  <rect x="170" y="180" width="150" height="50" rx="8" fill="#e6f0fa" stroke="#1351b4" stroke-width="2"/>
  <text x="245" y="209" fill="#0c326f" font-size="12" font-weight="600" text-anchor="middle">Receber demanda</text>
  <rect x="370" y="180" width="150" height="50" rx="8" fill="#e6f0fa" stroke="#1351b4" stroke-width="2"/>
  <text x="445" y="203" fill="#0c326f" font-size="12" font-weight="600" text-anchor="middle">Analisar e</text>
  <text x="445" y="218" fill="#0c326f" font-size="12" font-weight="600" text-anchor="middle">instruir</text>
  <path d="M600 205 l28 -24 28 24 -28 24 z" fill="#fff8e1" stroke="#b38600" stroke-width="2"/>
  <rect x="700" y="320" width="150" height="50" rx="8" fill="#e6f0fa" stroke="#1351b4" stroke-width="2"/>
  <text x="775" y="349" fill="#0c326f" font-size="12" font-weight="600" text-anchor="middle">Ajustar</text>
  <rect x="700" y="180" width="150" height="50" rx="8" fill="#e6f0fa" stroke="#1351b4" stroke-width="2"/>
  <text x="775" y="209" fill="#0c326f" font-size="12" font-weight="600" text-anchor="middle">Aprovar</text>
  <circle cx="910" cy="205" r="16" fill="#fff" stroke="#e52207" stroke-width="4"/>
  <g stroke="#333" stroke-width="2" fill="none" marker-end="url(#seta)">
    <line x1="126" y1="205" x2="168" y2="205"/>
    <line x1="320" y1="205" x2="368" y2="205"/>
    <line x1="520" y1="205" x2="598" y2="205"/>
    <line x1="656" y1="205" x2="698" y2="205"/>
    <path d="M628 229 v116 h70"/>
    <line x1="850" y1="205" x2="892" y2="205"/>
  </g>
  <defs><marker id="seta" markerWidth="8" markerHeight="8" refX="7" refY="4" orient="auto"><path d="M0 0 L8 4 L0 8 z" fill="#333"/></marker></defs>
  <text x="612" y="176" fill="#b38600" font-size="10" text-anchor="middle">Conforme?</text>
</svg>
